<?xml version="1.0" encoding="utf-8"?>
<!-- Generator: Adobe Illustrator 15.1.0, SVG Export Plug-In . SVG Version: 6.00 Build 0)  -->
<!DOCTYPE svg PUBLIC "-//W3C//DTD SVG 1.1//EN" "http://www.w3.org/Graphics/SVG/1.1/DTD/svg11.dtd">
<svg version="1.1" id="Layer_1" xmlns="http://www.w3.org/2000/svg" xmlns:xlink="http://www.w3.org/1999/xlink" x="0px" y="0px"
	 width="64px" height="64px" viewBox="0 0 64 64" enable-background="new 0 0 64 64" xml:space="preserve">
<g>
	<g>
		<g>
			<path fill="#8DC63F" d="M31.966,57.199c-13.976,0-25.346-11.37-25.346-25.346c0-13.976,11.37-25.347,25.346-25.347
				c13.976,0,25.347,11.371,25.347,25.347C57.312,45.829,45.941,57.199,31.966,57.199z M31.966,8.106
				c-13.094,0-23.747,10.653-23.747,23.747c0,13.094,10.653,23.746,23.747,23.746s23.747-10.652,23.747-23.746
				C55.713,18.759,45.06,8.106,31.966,8.106z M31.966,53.927c-12.171,0-22.073-9.901-22.073-22.073
				c0-12.171,9.902-22.073,22.073-22.073c12.171,0,22.073,9.902,22.073,22.073C54.039,44.025,44.137,53.927,31.966,53.927z
				 M31.966,11.38c-11.289,0-20.474,9.185-20.474,20.474s9.185,20.474,20.474,20.474s20.474-9.185,20.474-20.474
				S43.255,11.38,31.966,11.38z"/>
		</g>
	</g>
	<polygon fill="#FAA634" points="37.45,6.391 34.005,2.946 27.315,9.635 32.647,17.607 36.697,14.898 33.59,10.251 	"/>
	<polygon fill="#FFFFFF" points="34.478,14.458 33.088,15.387 29.376,9.837 34.005,5.208 35.188,6.391 31.53,10.049 	"/>
	<polygon fill="#FAA634" points="12.962,38.27 11.75,43.521 5.587,43.889 5.877,48.754 15.679,48.17 17.71,39.365 	"/>
	<polygon fill="#FFFFFF" points="14.389,46.643 7.379,47.061 7.28,45.391 13.041,45.049 14.162,40.189 15.792,40.564 	"/>
	<polygon fill="#FAA634" points="55.648,40.217 46.806,38.771 46.018,43.578 51.299,44.443 52.008,49.72 56.838,49.07 	"/>
	<polygon fill="#FFFFFF" points="53.381,47.921 52.727,43.055 47.855,42.258 48.126,40.607 54.221,41.605 55.039,47.697 	"/>
</g>
</svg>
