<?xml version="1.0" encoding="utf-8"?>
<!-- Generator: Adobe Illustrator 15.1.0, SVG Export Plug-In . SVG Version: 6.00 Build 0)  -->
<!DOCTYPE svg PUBLIC "-//W3C//DTD SVG 1.1//EN" "http://www.w3.org/Graphics/SVG/1.1/DTD/svg11.dtd">
<svg version="1.1" id="Layer_1" xmlns="http://www.w3.org/2000/svg" xmlns:xlink="http://www.w3.org/1999/xlink" x="0px" y="0px"
	 width="64px" height="64px" viewBox="0 0 64 64" enable-background="new 0 0 64 64" xml:space="preserve">
<rect x="-1.726" y="-3.018" fill="#3B73B9" width="67.451" height="70.035"/>
<g>
	<path fill="#8DC63F" d="M34.564,13.262c0.912,0.913,2.326-0.501,1.414-1.414c-0.771-0.771-1.541-1.542-2.312-2.312
		c14.558,0.449,25.319,13.766,22.624,28.154c-0.235,1.26,1.691,1.798,1.93,0.531c2.934-15.668-8.645-30.237-24.586-30.687
		c0.781-0.781,1.562-1.563,2.344-2.344c0.912-0.913-0.502-2.327-1.414-1.414c-1.346,1.345-2.69,2.69-4.035,4.035
		c-0.385,0.385-0.385,1.029,0,1.414C31.875,10.57,33.219,11.916,34.564,13.262z"/>
	<path fill="#8DC63F" d="M58.719,46.844c-0.457-1.848-0.914-3.694-1.371-5.541c-0.134-0.539-0.713-0.827-1.23-0.698
		c-1.848,0.457-3.694,0.914-5.541,1.371c-1.252,0.31-0.721,2.238,0.531,1.928c1.125-0.278,2.248-0.557,3.373-0.835
		c-3.384,6.856-9.566,11.627-17.141,13.1c-8.753,1.702-17.611-2.238-22.972-9.146c-0.79-1.018-2.194,0.408-1.414,1.414
		c5.668,7.306,14.992,11.29,24.208,9.777c8.193-1.345,15.154-6.477,18.891-13.816c0.246,0.993,0.491,1.986,0.736,2.979
		C57.1,48.627,59.027,48.096,58.719,46.844z"/>
	<path fill="#8DC63F" d="M12.7,38.771c-0.408,1.021-0.815,2.042-1.223,3.062C6.371,28.801,13.633,14.158,27.143,10.32
		c1.239-0.352,0.712-2.282-0.531-1.929c-14.738,4.188-22.356,19.987-17,34.103c-1.033-0.412-2.066-0.825-3.1-1.237
		c-1.199-0.479-1.714,1.456-0.531,1.928c1.767,0.706,3.534,1.412,5.302,2.117c0.546,0.219,1.046-0.238,1.23-0.698
		c0.706-1.767,1.411-3.533,2.116-5.301C15.107,38.104,13.172,37.589,12.7,38.771z"/>
</g>
</svg>
