<?xml version="1.0" encoding="UTF-8"?>
<svg width="64" height="64" xmlns="http://www.w3.org/2000/svg">
 <g>
  <title>Layer 1</title>
  <g id="svg_25">
   <g id="svg_26">
    <g id="svg_27">
     <path id="svg_28" d="m31.966,57.199001c-13.976,0 -25.346001,-11.369999 -25.346001,-25.346001c0,-13.976 11.370001,-25.347 25.346001,-25.347c13.975998,0 25.347,11.371 25.347,25.347c-0.000999,13.975998 -11.371998,25.346001 -25.347,25.346001zm0,-49.093002c-13.094,0 -23.747,10.653002 -23.747,23.747002c0,13.093998 10.653,23.745998 23.747,23.745998s23.746998,-10.652 23.746998,-23.745998c0.000004,-13.094 -10.652996,-23.747002 -23.746998,-23.747002zm0,45.820999c-12.171,0 -22.073,-9.901001 -22.073,-22.073c0,-12.171 9.902,-22.073 22.073,-22.073c12.170998,0 22.073002,9.902 22.073002,22.073c0,12.171003 -9.902,22.073 -22.073002,22.073zm0,-42.546997c-11.289,0 -20.474001,9.184999 -20.474001,20.474001s9.184999,20.474005 20.474001,20.474005s20.474003,-9.185005 20.474003,-20.474005s-9.185001,-20.474001 -20.474003,-20.474001z" fill="#65FF00"/>
    </g>
   </g>
   <polygon id="svg_29" points="37.45,6.391 34.005,2.946 27.315,9.635 32.647,17.607 36.697,14.898 33.59,10.251  " fill="#FAA634"/>
   <polygon id="svg_30" points="34.478,14.458 33.088,15.387 29.376,9.837 34.005,5.208 35.188,6.391 31.53,10.049  " fill="#FFFFFF"/>
   <polygon id="svg_31" points="12.962,38.27 11.75,43.521 5.587,43.889 5.877,48.754 15.679,48.17 17.71,39.365  " fill="#FAA634"/>
   <polygon id="svg_32" points="14.389,46.643 7.379,47.061 7.28,45.391 13.041,45.049 14.162,40.189 15.792,40.564  " fill="#FFFFFF"/>
   <polygon id="svg_33" points="55.648,40.217 46.806,38.771 46.018,43.578 51.299,44.443 52.008,49.72 56.838,49.07  " fill="#FAA634"/>
   <polygon id="svg_34" points="53.381,47.921 52.727,43.055 47.855,42.258 48.126,40.607 54.221,41.605 55.039,47.697  " fill="#FFFFFF"/>
  </g>
 </g>
</svg>