<?xml version="1.0" encoding="UTF-8"?>
<svg width="64" height="64" xmlns="http://www.w3.org/2000/svg">
 <g>
  <title>Layer 1</title>
  <rect id="svg_34" height="56.035001" width="55.450997" fill="#FFFFFF" y="4.982001" x="5.274001"/>
  <g id="svg_35">
   <g id="svg_36">
    <path id="svg_37" d="m32.493,58.460999c-13.976,0 -25.347,-11.369999 -25.347,-25.346001c0,-13.976 11.371,-25.347 25.347,-25.347c13.976002,0 25.346001,11.371 25.346001,25.347c0,13.976002 -11.369999,25.346001 -25.346001,25.346001zm0,-49.092999c-13.094,0 -23.747,10.653 -23.747,23.747002c0,13.093998 10.653,23.745998 23.747,23.745998c13.094002,0 23.745998,-10.652 23.745998,-23.745998c0,-13.094002 -10.651997,-23.747002 -23.745998,-23.747002zm0,45.82c-12.171,0 -22.073,-9.901001 -22.073,-22.072998c0,-12.171001 9.902,-22.073002 22.073,-22.073002c12.171001,0 22.073002,9.902 22.073002,22.073002c0,12.171997 -9.902,22.072998 -22.073002,22.072998zm0,-42.546001c-11.289,0 -20.474001,9.185001 -20.474001,20.473999s9.185001,20.473999 20.474001,20.473999s20.474003,-9.184994 20.474003,-20.473999s-9.185001,-20.473999 -20.474003,-20.473999z" fill="#65FF00"/>
   </g>
  </g>
  <g id="svg_38">
   <g id="svg_39">
    <polygon id="svg_40" points="33.395,17.759 28.873,10.998 34.532,5.339 36.846,7.652 33.087,11.412 36.114,15.939   " fill="#FFFFFF"/>
    <path id="svg_41" d="m33.174,18.868999l-5.330999,-7.972l6.689001,-6.689l3.444,3.445l-3.859001,3.861l3.106998,4.646001l-4.049999,2.709zm-3.271,-7.77l3.712002,5.55l1.389,-0.93l-2.947002,-4.408l3.658001,-3.659l-1.182999,-1.182l-4.629002,4.629z" fill="#FAA634"/>
   </g>
  </g>
  <g id="svg_42">
   <g id="svg_43">
    <polygon id="svg_44" points="7.155,49.169 6.961,45.901 12.923,45.547 14.089,40.491 17.278,41.227 15.561,48.668   " fill="#FFFFFF"/>
    <path id="svg_45" d="m6.404,50.015999l-0.29,-4.864998l6.163001,-0.367001l1.210999,-5.251999l4.749,1.095997l-2.032,8.805l-9.801,0.583l0,0l0,0l0,0l0,0l0,0zm1.403,-3.363998l0.099,1.669998l7.009,-0.417999l1.403001,-6.077999l-1.630001,-0.375l-1.120999,4.859001l-5.76,0.341999z" fill="#FAA634"/>
   </g>
  </g>
  <g id="svg_46">
   <polygon id="svg_47" points="53.908,49.183 55.566,48.959 54.747,42.867 48.653,41.869 48.383,43.52 53.254,44.316  " fill="#FFFFFF"/>
   <path id="svg_48" d="m56.174999,41.479l-8.841999,-1.445l-0.788002,4.806999l5.281002,0.865002l0.709,5.275997l4.829998,-0.648998l-1.189999,-8.854zm-7.521999,0.389999l6.094002,0.998001l0.819,6.091999l-1.658001,0.223999l-0.653999,-4.866001l-4.871002,-0.796997l0.27,-1.651001z" fill="#FAA634"/>
  </g>
 </g>
</svg>