<?xml version="1.0" encoding="utf-8"?>
<!-- Generator: Adobe Illustrator 15.1.0, SVG Export Plug-In . SVG Version: 6.00 Build 0)  -->
<!DOCTYPE svg PUBLIC "-//W3C//DTD SVG 1.1//EN" "http://www.w3.org/Graphics/SVG/1.1/DTD/svg11.dtd">
<svg version="1.1" id="Layer_1" xmlns="http://www.w3.org/2000/svg" xmlns:xlink="http://www.w3.org/1999/xlink" x="0px" y="0px"
	 width="64px" height="64px" viewBox="0 0 64 64" enable-background="new 0 0 64 64" xml:space="preserve">
<rect x="-1.726" y="-3.018" fill="#3B73B9" width="67.451" height="70.035"/>
<g>
	<g>
		<path fill="#8DC63F" d="M32.493,58.461c-13.976,0-25.347-11.37-25.347-25.346c0-13.976,11.371-25.347,25.347-25.347
			c13.976,0,25.346,11.371,25.346,25.347C57.839,47.091,46.469,58.461,32.493,58.461z M32.493,9.368
			c-13.094,0-23.747,10.653-23.747,23.747c0,13.094,10.653,23.746,23.747,23.746c13.094,0,23.746-10.652,23.746-23.746
			C56.239,20.021,45.587,9.368,32.493,9.368z M32.493,55.188c-12.171,0-22.073-9.901-22.073-22.073
			c0-12.171,9.902-22.073,22.073-22.073c12.171,0,22.073,9.902,22.073,22.073C54.566,45.287,44.664,55.188,32.493,55.188z
			 M32.493,12.642c-11.289,0-20.474,9.185-20.474,20.474s9.185,20.474,20.474,20.474s20.474-9.185,20.474-20.474
			S43.782,12.642,32.493,12.642z"/>
	</g>
</g>
<g>
	<g>
		<polygon fill="#3B73B9" points="33.395,17.759 28.873,10.998 34.532,5.339 36.846,7.652 33.087,11.412 36.114,15.939 		"/>
		<path fill="#FAA634" d="M33.174,18.869l-5.331-7.972l6.689-6.689l3.444,3.445l-3.859,3.861l3.107,4.646L33.174,18.869z
			 M29.903,11.099l3.712,5.55l1.389-0.93l-2.947-4.408l3.658-3.659L34.532,6.47L29.903,11.099z"/>
	</g>
</g>
<g>
	<g>
		<polygon fill="#3B73B9" points="7.155,49.169 6.961,45.901 12.923,45.547 14.089,40.491 17.278,41.227 15.561,48.668 		"/>
		<path fill="#FAA634" d="M6.404,50.016l-0.29-4.865l6.163-0.367l1.211-5.252l4.749,1.096l-2.032,8.805L6.404,50.016z M7.807,46.652
			l0.099,1.67l7.009-0.418l1.403-6.078l-1.63-0.375l-1.121,4.859L7.807,46.652z"/>
	</g>
</g>
<g>
	<polygon fill="#3B73B9" points="53.908,49.183 55.566,48.959 54.747,42.867 48.653,41.869 48.383,43.52 53.254,44.316 	"/>
	<path fill="#FAA634" d="M56.175,41.479l-8.842-1.445l-0.788,4.807l5.281,0.865l0.709,5.276l4.83-0.649L56.175,41.479z
		 M48.653,41.869l6.094,0.998l0.819,6.092l-1.658,0.224l-0.654-4.866l-4.871-0.797L48.653,41.869z"/>
</g>
</svg>
