<?xml version="1.0" encoding="utf-8"?>
<!-- Generator: Adobe Illustrator 15.1.0, SVG Export Plug-In . SVG Version: 6.00 Build 0)  -->
<!DOCTYPE svg PUBLIC "-//W3C//DTD SVG 1.1//EN" "http://www.w3.org/Graphics/SVG/1.1/DTD/svg11.dtd">
<svg version="1.1" id="Layer_1" xmlns="http://www.w3.org/2000/svg" xmlns:xlink="http://www.w3.org/1999/xlink" x="0px" y="0px"
	 width="64px" height="64px" viewBox="0 0 64 64" enable-background="new 0 0 64 64" xml:space="preserve">
<g>
	<path fill="#8DC63F" d="M44.205,8.893c0-0.275-0.23-0.504-0.504-0.504c-7.801,0-15.602,0-23.402,0
		c-0.274,0-0.504,0.229-0.504,0.504c0,1.512,0,3.025,0,4.537c0,0.275,0.229,0.504,0.504,0.504c0.485,0,0.971,0,1.457,0
		c0,5.404,0,10.809,0,16.213c0,0.275,0.229,0.504,0.502,0.504c6.494,0,12.99,0,19.482,0c0.139,0,0.24-0.053,0.32-0.123
		c0.012-0.01,0.023-0.016,0.035-0.025c0.01-0.012,0.018-0.023,0.025-0.035c0.072-0.08,0.123-0.182,0.123-0.32
		c0-5.404,0-10.809,0-16.213c0.486,0,0.971,0,1.457,0c0.139,0,0.24-0.053,0.318-0.123c0.014-0.01,0.025-0.016,0.035-0.025
		c0.01-0.012,0.018-0.023,0.025-0.035c0.072-0.08,0.125-0.182,0.125-0.32C44.205,11.918,44.205,10.404,44.205,8.893z M41.74,12.928
		c-6.492,0-12.988,0-19.482,0c-0.484,0-0.971,0-1.457,0c0-1.178,0-2.355,0-3.533c7.466,0,14.932,0,22.398,0c0,1.178,0,2.355,0,3.533
		C42.713,12.928,42.227,12.928,41.74,12.928z M41.238,29.645c-6.158,0-12.318,0-18.477,0c0-5.236,0-10.475,0-15.711
		c6.158,0,12.318,0,18.477,0C41.238,19.17,41.238,24.408,41.238,29.645z"/>
	<g>
		<path fill="#8DC63F" d="M30.627,33.854c0-0.275-0.229-0.504-0.502-0.504c-7.803,0-15.602,0-23.402,0
			c-0.275,0-0.504,0.229-0.504,0.504c0,1.512,0,3.025,0,4.537c0,0.275,0.229,0.504,0.504,0.504c0.484,0,0.971,0,1.457,0
			c0,5.404,0,10.809,0,16.213c0,0.275,0.229,0.504,0.502,0.504c6.494,0,12.988,0,19.482,0c0.139,0,0.24-0.053,0.32-0.123
			c0.01-0.01,0.023-0.016,0.033-0.025c0.01-0.012,0.018-0.023,0.025-0.035c0.072-0.08,0.123-0.182,0.123-0.32
			c0-5.404,0-10.809,0-16.213c0.486,0,0.973,0,1.459,0c0.137,0,0.24-0.053,0.318-0.123c0.012-0.01,0.023-0.016,0.035-0.025
			c0.01-0.012,0.018-0.023,0.025-0.035c0.072-0.08,0.123-0.182,0.123-0.32C30.627,36.879,30.627,35.365,30.627,33.854z
			 M28.164,37.889c-6.494,0-12.988,0-19.482,0c-0.484,0-0.971,0-1.457,0c0-1.178,0-2.355,0-3.533c7.465,0,14.932,0,22.396,0
			c0,1.178,0,2.355,0,3.533C29.135,37.889,28.65,37.889,28.164,37.889z M27.66,54.605c-6.158,0-12.316,0-18.475,0
			c0-5.236,0-10.475,0-15.711c6.158,0,12.316,0,18.475,0C27.66,44.131,27.66,49.369,27.66,54.605z"/>
		<path fill="#8DC63F" d="M57.781,33.854c0-0.275-0.229-0.504-0.502-0.504c-7.801,0-15.602,0-23.402,0
			c-0.273,0-0.504,0.229-0.504,0.504c0,1.512,0,3.025,0,4.537c0,0.275,0.23,0.504,0.504,0.504c0.486,0,0.971,0,1.457,0
			c0,5.404,0,10.809,0,16.213c0,0.275,0.229,0.504,0.502,0.504c6.494,0,12.988,0,19.482,0c0.139,0,0.24-0.053,0.32-0.123
			c0.012-0.01,0.023-0.016,0.033-0.025c0.012-0.012,0.018-0.023,0.027-0.035c0.07-0.08,0.123-0.182,0.123-0.32
			c0-5.404,0-10.809,0-16.213c0.484,0,0.971,0,1.457,0c0.137,0,0.24-0.053,0.318-0.123c0.012-0.01,0.025-0.016,0.035-0.025
			c0.01-0.012,0.018-0.023,0.025-0.035c0.072-0.08,0.123-0.182,0.123-0.32C57.781,36.879,57.781,35.365,57.781,33.854z
			 M55.318,37.889c-6.494,0-12.988,0-19.482,0c-0.484,0-0.971,0-1.457,0c0-1.178,0-2.355,0-3.533c7.467,0,14.932,0,22.396,0
			c0,1.178,0,2.355,0,3.533C56.291,37.889,55.805,37.889,55.318,37.889z M54.816,54.605c-6.158,0-12.318,0-18.477,0
			c0-5.236,0-10.475,0-15.711c6.158,0,12.318,0,18.477,0C54.816,44.131,54.816,49.369,54.816,54.605z"/>
	</g>
</g>
</svg>
