<?xml version="1.0" encoding="UTF-8"?>
<svg width="64" height="64" xmlns="http://www.w3.org/2000/svg">
 <g>
  <title>Layer 1</title>
  <g id="svg_56">
   <g id="svg_57">
    <rect x="19.569" y="18.577" transform="matrix(0.9308 0.3656 -0.3656 0.9308 9.4012 -10.4919)" fill="#FAA634" width="25.668" height="2" id="svg_58"/>
   </g>
   <path fill="#65FF00" d="m55.776001,18.558001l-0.212002,0.091l0.012001,-0.027l-23.656,-9.604l-23.499001,9.604l0.009001,0.021l-0.207001,-0.088999v9.448999l0.158,0.073999h-0.157v7.925999l0.158,0.074001h-0.158v7.923l22.698001,10.778v0.203999l24.854,-10.961998v-7.942001h-0.139l0.139,-0.062v-7.938h-0.139l0.139,-0.061998v-9.458l0,0l0,0zm-23.853001,-7.381001l21.099998,8.566l-21.099998,9.087l-20.958,-9.087999l20.958,-8.565001zm21.853001,10.42v5.125l-20.854,9.380001v-5.523001l20.854,-8.982l0,0zm-43.552001,0.004l20.698001,8.976v5.893002l-20.698001,-9.735001v-5.134001l0,0zm20.698001,17.078001v0.515999v5.274002l-20.698001,-9.735001v-5.790001l20.698001,9.735001zm-20.698001,4.056v-5.792l20.698001,9.735001v0.515999v5.369999l-20.698001,-9.828999zm43.552001,-0.019001l-20.854,9.198002v-5.619003l20.854,-9.380997v5.801998l0,0zm0,-7.993999l-20.854,9.380001v-5.807003l20.854,-9.380999v5.808001l0,0z" id="svg_59"/>
  </g>
 </g>
</svg>