<?xml version="1.0" encoding="utf-8"?>
<!-- Generator: Adobe Illustrator 15.1.0, SVG Export Plug-In . SVG Version: 6.00 Build 0)  -->
<!DOCTYPE svg PUBLIC "-//W3C//DTD SVG 1.1//EN" "http://www.w3.org/Graphics/SVG/1.1/DTD/svg11.dtd">
<svg version="1.1" id="Layer_1" xmlns="http://www.w3.org/2000/svg" xmlns:xlink="http://www.w3.org/1999/xlink" x="0px" y="0px"
	 width="64px" height="64px" viewBox="0 0 64 64" enable-background="new 0 0 64 64" xml:space="preserve">
<rect x="-1.726" y="-3.018" fill="#3B73B9" width="67.451" height="70.035"/>
<g>
	<g>
		
			<rect x="19.569" y="18.577" transform="matrix(0.9308 0.3656 -0.3656 0.9308 9.4012 -10.4919)" fill="#FAA634" width="25.668" height="2"/>
	</g>
	<path fill="#8DC63F" d="M55.776,18.558l-0.212,0.091l0.012-0.027L31.92,9.018L8.421,18.622l0.009,0.021l-0.207-0.089v9.449
		l0.158,0.074H8.224v7.926l0.158,0.074H8.224V44l22.698,10.778v0.204L55.776,44.02v-7.942h-0.139l0.139-0.062v-7.938h-0.139
		l0.139-0.062V18.558z M31.923,11.177l21.1,8.566l-21.1,9.087l-20.958-9.088L31.923,11.177z M53.776,21.597v5.125l-20.854,9.38
		v-5.523L53.776,21.597z M10.224,21.601l20.698,8.976v5.893l-20.698-9.735V21.601z M30.922,38.679v0.516v5.274l-20.698-9.735v-5.79
		L30.922,38.679z M10.224,42.735v-5.792l20.698,9.735v0.516v5.37L10.224,42.735z M53.776,42.716l-20.854,9.198v-5.619l20.854-9.381
		V42.716z M53.776,34.722l-20.854,9.38v-5.807l20.854-9.381V34.722z"/>
</g>
</svg>
