<?xml version="1.0" encoding="UTF-8"?>
<svg width="64" height="64" xmlns="http://www.w3.org/2000/svg">
 <g>
  <title>Layer 1</title>
  <g id="svg_19">
   <g id="svg_20">
    <path fill="#61F500" d="m33.234001,36.014v-8.913l23.918999,-9.951v8.559999l-23.918999,10.304001zm2,-7.579v4.539999l19.918999,-8.581999v-4.244999l-19.918999,8.286999z" id="svg_21"/>
   </g>
   <g id="svg_22">
    <path fill="#61F500" d="m30.73,35.504002l-23.882999,-9.782001v-8.573l23.884001,9.952v8.403002l-0.001001,0zm-21.882999,-11.124002l19.884001,8.143999v-4.088999l-19.884001,-8.286999v4.231998l0,0z" id="svg_23"/>
   </g>
   <g id="svg_24">
    <path fill="#61F500" d="m33.234001,47.014v-8.912998l23.918999,-9.951002v8.559999l-23.918999,10.304001zm2,-7.578999v4.539997l19.918999,-8.581997v-4.245001l-19.918999,8.287001z" id="svg_25"/>
   </g>
   <g id="svg_26">
    <path fill="#61F500" d="m30.73,46.504002l-23.882999,-9.782001v-8.573l23.884001,9.952002v8.403l-0.001001,0zm-21.882999,-11.124001l19.884001,8.143997v-4.088997l-19.884001,-8.287001v4.232l0,0z" id="svg_27"/>
   </g>
   <g id="svg_28">
    <path fill="#61F500" d="m33.234001,58.014v-8.912998l23.918999,-9.951v8.559998l-23.918999,10.304001zm2,-7.578999v4.539997l19.918999,-8.581997v-4.245003l-19.918999,8.287003z" id="svg_29"/>
   </g>
   <g id="svg_30">
    <path fill="#61F500" d="m30.73,57.504002l-23.882999,-9.782001v-8.573002l23.884001,9.952003v8.403l-0.001001,0zm-21.882999,-11.124001l19.884001,8.143997v-4.088997l-19.884001,-8.287003v4.232002l0,0z" id="svg_31"/>
   </g>
   <g id="svg_32">
    <path fill="#61F500" d="m31.992001,24.754999l-24.707001,-9.925999l24.698999,-8.843l24.735003,8.614l-24.727001,10.154999zm-19.074,-9.817999l19.065999,7.66l19.096003,-7.842l-19.087002,-6.648l-19.075,6.83z" id="svg_33"/>
   </g>
   <g id="svg_34">
    <g id="svg_35">
     <polygon fill="#FAA634" points="36.752,18.033 24.688,12.539 27.828,11.523 39.893,16.762    " id="svg_36"/>
    </g>
   </g>
  </g>
 </g>
</svg>