<?xml version="1.0" encoding="UTF-8"?>
<svg width="64" height="64" xmlns="http://www.w3.org/2000/svg">
 <g>
  <title>Layer 1</title>
  <g id="svg_74">
   <g id="svg_75">
    <path id="svg_76" d="m33.234001,59.046001v-32.98l23.919003,-9.948999v31.529997l-23.919003,11.399002zm2,-31.646002v28.477999l19.919003,-9.491997v-27.271002l-19.919003,8.285z" fill="#65FF00"/>
   </g>
   <g id="svg_77">
    <path id="svg_78" d="m30.73,58.535l-23.882999,-10.875v-31.544001l23.884001,9.950001v32.469l-0.001001,0l0,0l0,0zm-21.882999,-12.161999l19.884001,9.055v-28.028002l-19.884001,-8.284v27.257002l0,0z" fill="#65FF00"/>
   </g>
   <g id="svg_79">
    <path id="svg_80" d="m31.992001,23.721001l-24.707001,-9.926001l24.698999,-8.841l24.735003,8.612l-24.727001,10.155001l0,0l0,0zm-19.074,-9.819l19.065999,7.66l19.096003,-7.842l-19.087002,-6.645l-19.075,6.827001l0,0l0,0z" fill="#65FF00"/>
   </g>
   <g id="svg_81">
    <g id="svg_82">
     <polygon id="svg_83" points="36.752,17.001 24.688,11.505 27.828,10.491 39.893,15.729    " fill="#FAA634"/>
    </g>
   </g>
  </g>
 </g>
</svg>