<?xml version="1.0" encoding="utf-8"?>
<!-- Generator: Adobe Illustrator 15.1.0, SVG Export Plug-In . SVG Version: 6.00 Build 0)  -->
<!DOCTYPE svg PUBLIC "-//W3C//DTD SVG 1.1//EN" "http://www.w3.org/Graphics/SVG/1.1/DTD/svg11.dtd">
<svg version="1.1" id="Layer_1" xmlns="http://www.w3.org/2000/svg" xmlns:xlink="http://www.w3.org/1999/xlink" x="0px" y="0px"
	 width="64px" height="64px" viewBox="0 0 64 64" enable-background="new 0 0 64 64" xml:space="preserve">
<rect x="-1.726" y="-3.018" fill="#3B73B9" width="67.451" height="70.036"/>
<g>
	<g>
		
			<rect x="19.168" y="16.629" transform="matrix(-0.9308 -0.3656 0.3656 -0.9308 55.3428 45.7373)" fill="#FAA634" width="25.668" height="2"/>
	</g>
	<path fill="#8DC63F" d="M55.564,16.7l0.012-0.027L31.92,7.07L8.421,16.674l0.009,0.021l-0.207-0.089v29.449L30.922,56.73v0.053
		l24.854-10.705V16.609L55.564,16.7z M31.923,9.229l21.101,8.566l-21.101,9.087l-20.958-9.087L31.923,9.229z M10.224,44.785V19.652
		l20.698,8.976v25.894L10.224,44.785z M53.775,44.762l-20.854,8.982V28.63l20.854-8.981V44.762z"/>
</g>
</svg>
