<?xml version="1.0" encoding="utf-8"?>
<!-- Generator: Adobe Illustrator 15.1.0, SVG Export Plug-In . SVG Version: 6.00 Build 0)  -->
<!DOCTYPE svg PUBLIC "-//W3C//DTD SVG 1.1//EN" "http://www.w3.org/Graphics/SVG/1.1/DTD/svg11.dtd">
<svg version="1.1" id="Layer_1" xmlns="http://www.w3.org/2000/svg" xmlns:xlink="http://www.w3.org/1999/xlink" x="0px" y="0px"
	 width="64px" height="64px" viewBox="0 0 64 64" enable-background="new 0 0 64 64" xml:space="preserve">
<rect x="-1.726" y="-3.018" fill="#3B73B9" width="67.451" height="70.035"/>
<path fill="#8DC63F" d="M56.266,10.869c0-0.545-0.455-1-1-1c-15.51,0-31.021,0-46.531,0c-0.545,0-1,0.455-1,1
	c0,3.008,0,6.016,0,9.023c0,0.545,0.455,1,1,1c0.966,0,1.932,0,2.897,0c0,10.746,0,21.492,0,32.238c0,0.545,0.455,1,1,1
	c12.912,0,25.824,0,38.736,0c0.274,0,0.478-0.103,0.634-0.244c0.024-0.018,0.049-0.032,0.07-0.053
	c0.02-0.021,0.033-0.044,0.051-0.066c0.143-0.158,0.245-0.361,0.245-0.637c0-10.746,0-21.492,0-32.238c0.966,0,1.932,0,2.897,0
	c0.275,0,0.479-0.103,0.637-0.246c0.021-0.017,0.046-0.031,0.066-0.051c0.02-0.021,0.034-0.045,0.052-0.068
	c0.143-0.158,0.245-0.361,0.245-0.636C56.266,16.885,56.266,13.877,56.266,10.869z M51.368,18.893c-12.912,0-25.824,0-38.736,0
	c-0.966,0-1.932,0-2.897,0c0-2.341,0-4.682,0-7.023c14.844,0,29.688,0,44.531,0c0,2.341,0,4.682,0,7.023
	C53.3,18.893,52.334,18.893,51.368,18.893z M50.368,52.131c-12.245,0-24.491,0-36.736,0c0-10.412,0-20.825,0-31.238
	c12.246,0,24.491,0,36.736,0C50.368,31.306,50.368,41.719,50.368,52.131z"/>
</svg>
