<?xml version="1.0" encoding="utf-8"?>
<!-- Generator: Adobe Illustrator 20.0.0, SVG Export Plug-In . SVG Version: 6.00 Build 0)  -->
<svg version="1.1" id="Layer_1" xmlns="http://www.w3.org/2000/svg" xmlns:xlink="http://www.w3.org/1999/xlink" x="0px" y="0px"
	 viewBox="0 0 64 64" style="enable-background:new 0 0 64 64;" xml:space="preserve">
<style type="text/css">
	.st0{fill:url(#SVGID_1_);stroke:#BABABA;stroke-miterlimit:10;}
	.st1{fill:url(#SVGID_2_);stroke:#FFDA73;stroke-miterlimit:10;}
	.st2{fill:#FBB250;stroke:#FAA634;stroke-miterlimit:10;}
</style>
<g>
	<radialGradient id="SVGID_1_" cx="30.9821" cy="43.8537" r="12.254" gradientUnits="userSpaceOnUse">
		<stop  offset="0" style="stop-color:#FFFFFF"/>
		<stop  offset="1" style="stop-color:#C4C4C4"/>
	</radialGradient>
	<path class="st0" d="M43.3,31.6H18.7v24.5h24.6V31.6z"/>
	<radialGradient id="SVGID_2_" cx="30.9821" cy="17.6282" r="11.6415" gradientUnits="userSpaceOnUse">
		<stop  offset="0" style="stop-color:#FFFFFF"/>
		<stop  offset="1" style="stop-color:#FFE396"/>
	</radialGradient>
	<path class="st1" d="M31,29.3c6.4,0,11.6-5.2,11.6-11.6C42.6,11.2,37.4,6,31,6c-6.4,0-11.6,5.2-11.6,11.6
		C19.3,24,24.6,29.3,31,29.3z"/>
	<g>
		<path class="st2" d="M44.2,34.7c3.9,0,7.1,3.2,7.1,7.2c0,3.9-3.3,7.1-7.2,7.1c-4,0-7.1-3.3-7.1-7.2C37,37.8,40.3,34.6,44.2,34.7z
			 M46.4,37.1c-1.3,0-2.4,1.2-2.3,2.4c0.1,1.3,1.2,2.4,2.5,2.3c1.3-0.1,2.4-1.2,2.3-2.5C48.8,38.1,47.7,37.1,46.4,37.1z"/>
		<path class="st2" d="M35.9,54.6c0.6,0,1.2,0,1.7,0c0.8,0,1-0.2,1-1c0-0.5,0-1.1,0-1.6c0,0,0-0.1,0.1-0.1c0.6,0,1.1,0,1.7,0
			c0.7,0,0.9-0.2,1-0.9c0-1,0-1-0.9-1.4c-0.8-0.4-1.5-0.9-2.3-1.4c-0.1,0.1-0.2,0.2-0.3,0.3c-2.1,2.1-4.3,4.3-6.4,6.4
			c-0.1,0.1-0.2,0.2-0.4,0.3c-0.4,0.3-0.8,0.2-1.1-0.1c-0.3-0.3-0.3-0.7-0.1-1c0.1-0.2,0.2-0.3,0.4-0.4c2.2-2.2,4.4-4.4,6.5-6.5
			c0.2-0.2,0.3-0.4,0.1-0.7c-0.3-0.4-0.5-0.8-0.7-1.2c-0.1,0.1-0.2,0.2-0.3,0.3c-2.5,2.5-5,5-7.6,7.6c-0.2,0.2-0.4,0.6-0.4,0.9
			c0,0.9,0,1.8,0.1,2.7c0.1,0.7,0.6,1.2,1.3,1.3c1,0.1,1.9,0.1,2.9,0c0.2,0,0.4-0.2,0.6-0.3c0.2-0.3,0.5-0.4,0.9-0.3
			c0.5,0,0.9,0,1.4,0c0.6,0,0.9-0.2,0.9-0.8C35.9,55.9,35.9,55.3,35.9,54.6z"/>
	</g>
</g>
</svg>
