<?xml version="1.0" encoding="utf-8"?>
<!-- Generator: Adobe Illustrator 15.1.0, SVG Export Plug-In . SVG Version: 6.00 Build 0)  -->
<!DOCTYPE svg PUBLIC "-//W3C//DTD SVG 1.1//EN" "http://www.w3.org/Graphics/SVG/1.1/DTD/svg11.dtd">
<svg version="1.1" id="Layer_1" xmlns="http://www.w3.org/2000/svg" xmlns:xlink="http://www.w3.org/1999/xlink" x="0px" y="0px"
	 width="64px" height="64px" viewBox="0 0 64 64" enable-background="new 0 0 64 64" xml:space="preserve">
<g>
	<polygon fill="#8DC63F" points="6.72,45.781 28.38,55.644 28.38,26.198 6.72,17.174 	"/>
	<polygon fill="#8DC63F" points="29.518,7.05 7.117,15.068 29.524,24.07 51.952,14.861 	"/>
	<g>
		<g>
			<defs>
				<polygon id="SVGID_1_" points="29.518,7.05 7.117,15.068 29.524,24.07 51.952,14.861 				"/>
			</defs>
			<clipPath id="SVGID_2_">
				<use xlink:href="#SVGID_1_"  overflow="visible"/>
			</clipPath>
			<g clip-path="url(#SVGID_2_)">
				<polygon fill="#FAA634" points="40.142,19.922 17.339,11.112 19.99,9.977 42.687,18.925 				"/>
			</g>
		</g>
	</g>
	<polygon fill="#8DC63F" points="44.35,29.926 44.35,24.863 52.342,21.288 52.342,17.174 30.651,26.198 30.651,56.108 
		52.342,45.771 52.342,41.355 44.35,44.932 44.35,39.868 52.342,36.292 52.342,33.958 44.35,37.534 44.35,32.471 52.342,28.896 
		52.342,26.351 	"/>
	<polygon fill="#FAA634" points="58.124,22.297 58.124,20.169 45.688,25.732 45.688,27.859 	"/>
	<path fill="#FAA634" d="M45.688,25.732l12.436-5.562v2.127l-12.436,5.562V25.732z"/>
	<polygon fill="#FAA634" points="58.124,29.904 58.124,27.777 45.688,33.34 45.688,35.467 	"/>
	<path fill="#FAA634" d="M45.688,33.34l12.436-5.562v2.127l-12.436,5.562V33.34z"/>
	<polygon fill="#FAA634" points="58.124,37.302 58.124,35.174 45.688,40.737 45.688,42.864 	"/>
	<path fill="#FAA634" d="M45.688,40.737l12.436-5.563v2.128l-12.436,5.562V40.737z"/>
</g>
</svg>
