<?xml version="1.0" encoding="utf-8"?>
<!-- Generator: Adobe Illustrator 15.1.0, SVG Export Plug-In . SVG Version: 6.00 Build 0)  -->
<!DOCTYPE svg PUBLIC "-//W3C//DTD SVG 1.1//EN" "http://www.w3.org/Graphics/SVG/1.1/DTD/svg11.dtd">
<svg version="1.1" id="Layer_1" xmlns="http://www.w3.org/2000/svg" xmlns:xlink="http://www.w3.org/1999/xlink" x="0px" y="0px"
	 width="64px" height="64px" viewBox="0 0 64 64" enable-background="new 0 0 64 64" xml:space="preserve">
<g>
	<rect x="26.25" y="27.917" fill="#8DC63F" width="4.833" height="4"/>
	<rect x="33.917" y="27.917" fill="#8DC63F" width="4.832" height="4"/>
	<rect x="40.833" y="27.917" fill="#8DC63F" width="4.832" height="4"/>
	<rect x="26.25" y="34.666" fill="#8DC63F" width="4.833" height="4"/>
	<rect x="18.834" y="34.666" fill="#8DC63F" width="4.833" height="4"/>
	<rect x="33.917" y="34.666" fill="#FAA634" width="4.832" height="4"/>
	<rect x="40.833" y="34.666" fill="#8DC63F" width="4.832" height="4"/>
	<rect x="26.25" y="41.832" fill="#8DC63F" width="4.833" height="4"/>
	<rect x="18.834" y="41.832" fill="#8DC63F" width="4.833" height="4"/>
	<rect x="33.917" y="41.832" fill="#8DC63F" width="4.832" height="4"/>
	<rect x="40.833" y="41.832" fill="#8DC63F" width="4.832" height="4"/>
	<g>
		<rect x="12.917" y="25" fill="none" width="38.166" height="24.334"/>
		<path fill="#8DC63F" d="M47.833,12.667v3.26c0,2.016-1.719,3.657-3.832,3.657c-2.114,0-3.834-1.641-3.834-3.657v-3.26H23.963v3.26
			c0,2.016-1.719,3.657-3.833,3.657c-2.113,0-3.833-1.641-3.833-3.657v-3.26h-6.38V25v27.334h44.166V25V12.667H47.833z
			 M51.083,49.334H12.917V25h38.166V49.334z"/>
		<path fill="#8DC63F" d="M17.797,15.927c0,1.189,1.047,2.157,2.333,2.157c1.287,0,2.333-0.967,2.333-2.157v-4.104
			c0-1.189-1.046-2.156-2.333-2.156c-1.286,0-2.333,0.967-2.333,2.156V15.927z"/>
		<path fill="#8DC63F" d="M20.13,9.667c1.287,0,2.333,0.967,2.333,2.156v4.104c0,1.189-1.046,2.157-2.333,2.157
			c-1.286,0-2.333-0.967-2.333-2.157v-4.104C17.797,10.634,18.844,9.667,20.13,9.667z"/>
		<path fill="#8DC63F" d="M41.667,15.927c0,1.189,1.047,2.157,2.334,2.157c1.286,0,2.332-0.967,2.332-2.157v-4.104
			c0-1.189-1.046-2.156-2.332-2.156c-1.287,0-2.334,0.967-2.334,2.156V15.927z"/>
		<path fill="#8DC63F" d="M44.001,9.667c1.286,0,2.332,0.967,2.332,2.156v4.104c0,1.189-1.046,2.157-2.332,2.157
			c-1.287,0-2.334-0.967-2.334-2.157v-4.104C41.667,10.634,42.714,9.667,44.001,9.667z"/>
	</g>
</g>
</svg>
