<?xml version="1.0" encoding="utf-8"?>
<!-- Generator: Adobe Illustrator 15.1.0, SVG Export Plug-In . SVG Version: 6.00 Build 0)  -->
<!DOCTYPE svg PUBLIC "-//W3C//DTD SVG 1.1//EN" "http://www.w3.org/Graphics/SVG/1.1/DTD/svg11.dtd">
<svg version="1.1" id="Layer_1" xmlns="http://www.w3.org/2000/svg" xmlns:xlink="http://www.w3.org/1999/xlink" x="0px" y="0px"
	 width="64px" height="64px" viewBox="0 0 64 64" enable-background="new 0 0 64 64" xml:space="preserve">
<g>
	<path fill="#FAA634" d="M47.334,31.265l4.061,4.871c0.405-0.449,0.867-0.84,1.385-1.159l-4.061-4.871
		C48.313,30.555,47.853,30.945,47.334,31.265z"/>
	<path fill="#FAA634" d="M27.319,36.136c0.406-0.449,0.868-0.84,1.385-1.159l-4.06-4.871c-0.406,0.449-0.867,0.839-1.385,1.159"/>
	<path fill="#FAA634" d="M12.606,36.136l4.059-4.871c-0.517-0.32-0.979-0.71-1.383-1.159l-4.06,4.871
		C11.739,35.296,12.201,35.687,12.606,36.136z"/>
	<path fill="#FAA634" d="M35.538,17.891l3.646,4.011c0.386-0.466,0.814-0.896,1.316-1.237l-3.647-4.011
		C36.469,17.121,36.041,17.55,35.538,17.891z"/>
	<path fill="#FAA634" d="M24.816,21.9l3.646-4.01c-0.502-0.341-0.932-0.77-1.316-1.237L23.5,20.665
		C24.002,21.006,24.431,21.434,24.816,21.9z"/>
	<path fill="#8DC63F" d="M32.001,17.171c2.489,0,4.513-2.025,4.513-4.514c0-2.488-2.023-4.514-4.513-4.514
		c-2.49,0-4.515,2.025-4.515,4.514C27.486,15.146,29.511,17.171,32.001,17.171z"/>
	<path fill="#8DC63F" d="M36.514,40.344c0-2.489-2.023-4.514-4.513-4.514c-2.49,0-4.515,2.024-4.515,4.514s2.025,4.513,4.515,4.513
		C34.49,44.856,36.514,42.833,36.514,40.344z"/>
	<path fill="#8DC63F" d="M56.075,35.83c-2.488,0-4.515,2.024-4.515,4.514s2.026,4.513,4.515,4.513c2.489,0,4.513-2.023,4.513-4.513
		S58.564,35.83,56.075,35.83z"/>
	<path fill="#8DC63F" d="M12.439,40.344c0-2.489-2.025-4.514-4.513-4.514c-2.489,0-4.514,2.024-4.514,4.514s2.025,4.513,4.514,4.513
		C10.414,44.856,12.439,42.833,12.439,40.344z"/>
	<path fill="#8DC63F" d="M44.038,30.412c2.488,0,4.514-2.026,4.514-4.513c0-2.49-2.025-4.515-4.514-4.515s-4.514,2.025-4.514,4.515
		C39.524,28.386,41.55,30.412,44.038,30.412z"/>
	<path fill="#8DC63F" d="M19.963,30.412c2.489,0,4.514-2.026,4.514-4.513c0-2.49-2.025-4.515-4.514-4.515
		c-2.488,0-4.514,2.025-4.514,4.515C15.449,28.386,17.475,30.412,19.963,30.412z"/>
</g>
</svg>
