<?xml version="1.0" encoding="utf-8"?>
<!-- Generator: Adobe Illustrator 15.1.0, SVG Export Plug-In . SVG Version: 6.00 Build 0)  -->
<!DOCTYPE svg PUBLIC "-//W3C//DTD SVG 1.1//EN" "http://www.w3.org/Graphics/SVG/1.1/DTD/svg11.dtd">
<svg version="1.1" id="Layer_1" xmlns="http://www.w3.org/2000/svg" xmlns:xlink="http://www.w3.org/1999/xlink" x="0px" y="0px"
	 width="64px" height="64px" viewBox="0 0 64 64" enable-background="new 0 0 64 64" xml:space="preserve">
<g>
	<path fill="#8DC63F" d="M36.351,36.822l-8.935-9.154l-1.817,2.452l8.714,8.908c-1.203,1.056-2.57,1.92-4.122,2.568l-6.5-6.616
		l-0.589,3.664l3.853,3.937c-1.558,0.336-2.212,0.502-4.036,0.521L23,45.75c12.25,0,20.663-8.832,20.513-25.132
		c-0.039-4.187,0.714-7.451,1.723-9.965l5.681,5.682l2.334-1.833l-6.607-6.699c1.691-2.788,3.465-4.014,3.604-4.107L48.613,1.18
		c-0.337,0.218-8.229,5.505-8.101,19.465c0.031,3.427-0.296,6.449-0.949,9.098l-5.262-5.37l-2.719,1.379l6.82,7.094"/>
	<path fill="#8DC63F" d="M16.537,43.159c-7.771,1.023-12.603,6.384-12.849,6.618l2.073,2.169c0.02-0.02,0.798-0.749,2.121-1.698
		l5.173,5.28l1.876-2.372l-4.462-4.554c2.055-1.157,3.54-2.076,6.379-2.45L16.537,43.159z"/>
</g>
<g>
	<path fill="#FAA634" d="M45.342,22.163l-0.093-3.008c6.12-0.522,9.373-2.663,11.664-6.569l2.588,1.518
		C56.729,18.831,52.387,21.561,45.342,22.163z"/>
</g>
<g>
	<path fill="#FAA634" d="M13.24,62.246l-1.804-2.396c0.076-0.058,7.621-5.881,6.848-14.604c-0.754-8.504,0.976-15.356,5.003-19.818
		c3.677-4.074,8.479-6.172,15.708-6.273l-0.161,3.004c-6.359,0.088-10.224,1.85-13.319,5.279
		c-4.363,4.833-4.715,12.208-4.242,17.542C22.194,55.391,13.606,61.971,13.24,62.246z"/>
</g>
</svg>
