<?xml version="1.0" encoding="utf-8"?>
<!-- Generator: Adobe Illustrator 15.1.0, SVG Export Plug-In . SVG Version: 6.00 Build 0)  -->
<!DOCTYPE svg PUBLIC "-//W3C//DTD SVG 1.1//EN" "http://www.w3.org/Graphics/SVG/1.1/DTD/svg11.dtd">
<svg version="1.1" id="Layer_1" xmlns="http://www.w3.org/2000/svg" xmlns:xlink="http://www.w3.org/1999/xlink" x="0px" y="0px"
	 width="64px" height="64px" viewBox="0 0 64 64" enable-background="new 0 0 64 64" xml:space="preserve">
<g>
	<g>
		<path fill="#8DC63F" d="M21.382,13.4h21.235V6.764h-7.672l0.062-0.985c0-1.63-1.35-2.979-3.007-2.979s-3.006,1.349-3.006,3.006
			c0.007,0.025,0.013,0.077,0.015,0.13l0.03,0.829h-7.657V13.4z"/>
	</g>
	<path fill="#8DC63F" d="M44.417,6.552v8.523H19.582V6.552H9.719v52.847h44.562V6.552H44.417z M34.833,46.861H17.24v-4h17.593
		V46.861z M46.76,39.861H17.24v-4h29.52V39.861L46.76,39.861z M46.76,32.861H17.24v-4h29.52V32.861L46.76,32.861z M46.76,25.862
		H17.24v-4h29.52V25.862L46.76,25.862z"/>
	<rect x="18.24" y="22.862" fill="#FAA634" width="27.52" height="2"/>
	<path fill="none" d="M17.24,25.862h29.52v-4H17.24V25.862z M18.24,22.862h27.52v2H18.24V22.862z"/>
	<rect x="18.24" y="29.862" fill="#FAA634" width="27.52" height="2"/>
	<path fill="none" d="M17.24,32.861h29.52v-4H17.24V32.861z M18.24,29.862h27.52v2H18.24V29.862z"/>
	<rect x="18.24" y="36.861" fill="#FAA634" width="27.52" height="2"/>
	<path fill="none" d="M17.24,39.861h29.52v-4H17.24V39.861z M18.24,36.861h27.52v2H18.24V36.861z"/>
	<rect x="18.24" y="43.861" fill="#FAA634" width="15.593" height="2"/>
	<path fill="none" d="M17.24,46.861h17.593v-4H17.24V46.861z M18.24,43.861h15.593v2H18.24V43.861z"/>
</g>
</svg>
