<?xml version="1.0" encoding="utf-8"?>
<!-- Generator: Adobe Illustrator 15.1.0, SVG Export Plug-In . SVG Version: 6.00 Build 0)  -->
<!DOCTYPE svg PUBLIC "-//W3C//DTD SVG 1.1//EN" "http://www.w3.org/Graphics/SVG/1.1/DTD/svg11.dtd">
<svg version="1.1" id="Layer_1" xmlns="http://www.w3.org/2000/svg" xmlns:xlink="http://www.w3.org/1999/xlink" x="0px" y="0px"
	 width="64px" height="64px" viewBox="0 0 64 64" enable-background="new 0 0 64 64" xml:space="preserve">
<g>
	<g>
		<path fill="#8DC63F" d="M31.966,57.199c-13.976,0-25.346-11.37-25.346-25.346S17.99,6.506,31.966,6.506
			s25.347,11.371,25.347,25.347S45.941,57.199,31.966,57.199z M31.966,11.38c-11.289,0-20.474,9.185-20.474,20.474
			c0,11.289,9.185,20.474,20.474,20.474s20.474-9.186,20.474-20.474C52.439,20.565,43.255,11.38,31.966,11.38z"/>
	</g>
</g>
<polygon fill="#FAA634" points="37.45,5.391 34.005,1.946 27.315,8.635 32.646,16.607 36.697,13.898 33.59,9.251 "/>
<polygon fill="#FAA634" points="12.962,38.27 11.75,43.521 5.587,43.889 5.877,48.754 15.679,48.17 17.71,39.365 "/>
<polygon fill="#FAA634" points="55.648,40.217 46.807,38.771 46.018,43.578 51.299,44.443 52.008,49.721 56.838,49.07 "/>
</svg>
