<?xml version="1.0" encoding="utf-8"?>
<!-- Generator: Adobe Illustrator 20.0.0, SVG Export Plug-In . SVG Version: 6.00 Build 0)  -->
<svg version="1.1" id="Layer_1" xmlns="http://www.w3.org/2000/svg" xmlns:xlink="http://www.w3.org/1999/xlink" x="0px" y="0px"
	 viewBox="0 0 64 64" style="enable-background:new 0 0 64 64;" xml:space="preserve">
<style type="text/css">
	.st0{fill:url(#SVGID_1_);stroke:#BABABA;stroke-miterlimit:10;}
	.st1{fill:url(#SVGID_2_);stroke:#FFDA73;stroke-miterlimit:10;}
	.st2{opacity:0.32;fill:#9ECF5C;enable-background:new    ;}
	.st3{fill:#9ECF5C;stroke:#8DC63F;stroke-width:0.7;stroke-miterlimit:10;}
	.st4{fill:url(#SVGID_3_);stroke:#BABABA;stroke-miterlimit:10;}
	.st5{fill:url(#SVGID_4_);stroke:#FFDA73;stroke-miterlimit:10;}
	.st6{fill:#FBB250;stroke:#FAA634;stroke-width:0.7;stroke-miterlimit:10;}
	.st7{fill:url(#SVGID_5_);stroke:#BABABA;stroke-miterlimit:10;}
	.st8{fill:url(#SVGID_6_);stroke:#FFDA73;stroke-miterlimit:10;}
</style>
<radialGradient id="SVGID_1_" cx="47.7103" cy="583.7219" r="7.4109" gradientTransform="matrix(1 0 0 1 0 -546)" gradientUnits="userSpaceOnUse">
	<stop  offset="0" style="stop-color:#FFFFFF"/>
	<stop  offset="1" style="stop-color:#C4C4C4"/>
</radialGradient>
<path class="st0" d="M55.1,30.3H40.3v14.8h14.9V30.3z"/>
<radialGradient id="SVGID_2_" cx="47.7103" cy="567.8594" r="7.0392" gradientTransform="matrix(1 0 0 1 0 -546)" gradientUnits="userSpaceOnUse">
	<stop  offset="0" style="stop-color:#FFFFFF"/>
	<stop  offset="1" style="stop-color:#FFE396"/>
</radialGradient>
<path class="st1" d="M47.7,28.9c3.9,0,7-3.1,7-7s-3.1-7-7-7s-7,3.1-7,7C40.7,25.7,43.8,28.9,47.7,28.9z"/>
<circle class="st2" cx="55.8" cy="33.6" r="5.3"/>
<path class="st3" d="M61.6,35.9c1.2-3.2-0.4-6.8-3.6-8s-6.8,0.4-8,3.6c-1,2.7,0,5.7,2.3,7.4c-0.1,0.1-0.1,0.1-0.1,0.2L49.5,46
	c-0.3,0.8,0.1,1.6,0.8,1.9c0.8,0.3,1.6-0.1,1.9-0.8l2.7-7.1c0-0.1,0.1-0.1,0.1-0.2C57.7,40.2,60.5,38.6,61.6,35.9z M54.1,38
	c-2.4-0.9-3.6-3.6-2.7-6c0.9-2.4,3.6-3.6,6-2.7s3.6,3.6,2.7,6C59.2,37.7,56.5,38.9,54.1,38z"/>
<radialGradient id="SVGID_3_" cx="14.9228" cy="28.2177" r="7.4047" gradientTransform="matrix(1 0 0 -1 0 66)" gradientUnits="userSpaceOnUse">
	<stop  offset="0" style="stop-color:#FFFFFF"/>
	<stop  offset="1" style="stop-color:#C4C4C4"/>
</radialGradient>
<path class="st4" d="M22.4,30.4H7.5v14.8h14.9C22.4,45.2,22.4,30.4,22.4,30.4z"/>
<radialGradient id="SVGID_4_" cx="14.9223" cy="44.0634" r="7.0422" gradientTransform="matrix(1 0 0 -1 0 66)" gradientUnits="userSpaceOnUse">
	<stop  offset="0" style="stop-color:#FFFFFF"/>
	<stop  offset="1" style="stop-color:#FFE396"/>
</radialGradient>
<path class="st5" d="M14.9,29c3.9,0,7-3.1,7-7c0-3.9-3.1-7.1-7-7.1s-7,3.1-7,7C7.8,25.8,11.1,29,14.9,29z"/>
<g>
	<path class="st6" d="M11.8,36.5c0,2.4-1.9,4.4-4.3,4.4c-2.4,0-4.4-1.9-4.4-4.3c0-2.4,1.9-4.4,4.3-4.4C9.8,32.2,11.8,34.1,11.8,36.5
		z M4.6,35c-0.1,0.8,0.6,1.5,1.4,1.5s1.5-0.6,1.5-1.4c0.1-0.7-0.6-1.5-1.4-1.5S4.6,34.3,4.6,35z"/>
	<path class="st6" d="M12.4,45.6c0,0.4,0.2,0.5,0.5,0.5c0.3,0,0.5,0,0.8,0c0.2-0.1,0.4,0,0.5,0.2c0.1,0.1,0.2,0.2,0.4,0.2
		c0.6,0.1,1.1,0.1,1.8,0c0.4-0.1,0.7-0.4,0.8-0.8c0.1-0.5,0.1-1.1,0.1-1.6c0-0.2-0.1-0.4-0.2-0.5c-1.6-1.6-3.1-3.1-4.6-4.6
		c-0.1-0.1-0.1-0.1-0.2-0.2c-0.1,0.2-0.2,0.5-0.4,0.7c-0.1,0.2-0.1,0.3,0.1,0.4c1.3,1.3,2.6,2.6,3.9,3.9c0.1,0.1,0.2,0.1,0.2,0.2
		c0.1,0.2,0.1,0.4-0.1,0.6s-0.4,0.2-0.7,0.1c-0.1-0.1-0.2-0.1-0.2-0.2c-1.3-1.3-2.6-2.6-3.9-3.9c-0.1-0.1-0.1-0.1-0.2-0.2
		c-0.5,0.3-0.9,0.6-1.4,0.8c-0.5,0.2-0.5,0.2-0.5,0.8c0.1,0.4,0.2,0.5,0.6,0.5c0.4,0,0.7,0,1,0c0.1,0,0.1,0.1,0.1,0.1
		c0,0.3,0,0.7,0,1c0,0.5,0.1,0.6,0.6,0.6c0.3,0,0.7,0,1,0C12.4,44.7,12.4,45.1,12.4,45.6z"/>
</g>
<radialGradient id="SVGID_5_" cx="31.3091" cy="22.7427" r="7.4109" gradientTransform="matrix(1 0 0 -1 0 66)" gradientUnits="userSpaceOnUse">
	<stop  offset="0" style="stop-color:#FFFFFF"/>
	<stop  offset="1" style="stop-color:#C4C4C4"/>
</radialGradient>
<path class="st7" d="M38.7,35.8H23.9v14.8h14.9V35.8z"/>
<radialGradient id="SVGID_6_" cx="31.3091" cy="38.6051" r="7.0398" gradientTransform="matrix(1 0 0 -1 0 66)" gradientUnits="userSpaceOnUse">
	<stop  offset="0" style="stop-color:#FFFFFF"/>
	<stop  offset="1" style="stop-color:#FFE396"/>
</radialGradient>
<path class="st8" d="M31.3,34.5c3.9,0,7-3.1,7-7s-3.1-7-7-7s-7,3.1-7,7C24.3,31.3,27.4,34.5,31.3,34.5z"/>
<path class="st3" d="M36.4,52.7c0.8-0.1,1.3-0.7,1.3-1.5l-1.2-15.8l-1.6-2.2l-1.2,2.5l1.2,15.7C35,52.2,35.7,52.7,36.4,52.7z"/>
<path class="st6" d="M38,52.4c0.7,0.2,1.5-0.2,1.7-1l4-15.4l-0.8-2.7l-1.9,2L37,50.7C36.8,51.4,37.2,52.2,38,52.4z"/>
</svg>
