<?xml version="1.0" encoding="utf-8"?>
<!-- Generator: Adobe Illustrator 15.1.0, SVG Export Plug-In . SVG Version: 6.00 Build 0)  -->
<!DOCTYPE svg PUBLIC "-//W3C//DTD SVG 1.1//EN" "http://www.w3.org/Graphics/SVG/1.1/DTD/svg11.dtd">
<svg version="1.1" id="Layer_1" xmlns="http://www.w3.org/2000/svg" xmlns:xlink="http://www.w3.org/1999/xlink" x="0px" y="0px"
	 width="64px" height="64px" viewBox="0 0 64 64" enable-background="new 0 0 64 64" xml:space="preserve">
<path fill="#8DC63F" d="M55.252,50.516L42.647,37.911c-0.752-0.752-2.008-0.783-3.209-0.214l-2.607-2.852
	c2.599-2.909,4.193-6.733,4.193-10.932c0-9.068-7.377-16.446-16.445-16.446c-9.068,0-16.446,7.378-16.446,16.446
	c0,9.067,7.378,16.445,16.446,16.445c3.587,0,6.899-1.168,9.605-3.124l2.774,3.034c-0.49,1.147-0.431,2.325,0.287,3.042
	l12.605,12.606c1.059,1.062,3.129,0.711,4.621-0.78C55.965,53.645,56.314,51.577,55.252,50.516z M11.7,23.914
	c0-7.102,5.777-12.879,12.879-12.879c7.102,0,12.879,5.777,12.879,12.879s-5.777,12.879-12.879,12.879
	C17.477,36.793,11.7,31.016,11.7,23.914z"/>
</svg>
