<?xml version="1.0" encoding="utf-8"?>
<!-- Generator: Adobe Illustrator 20.0.0, SVG Export Plug-In . SVG Version: 6.00 Build 0)  -->
<svg version="1.1" id="Layer_1" xmlns="http://www.w3.org/2000/svg" xmlns:xlink="http://www.w3.org/1999/xlink" x="0px" y="0px"
	 viewBox="0 0 64 64" style="enable-background:new 0 0 64 64;" xml:space="preserve">
<style type="text/css">
	.st0{fill:url(#SVGID_1_);stroke:#BABABA;stroke-miterlimit:10;}
	.st1{fill:url(#SVGID_2_);stroke:#FFDA73;stroke-miterlimit:10;}
	.st2{fill:#9ECF5C;stroke:#8DC63F;stroke-miterlimit:10;}
	.st3{fill:#FBB250;stroke:#FAA634;stroke-miterlimit:10;}
</style>
<g>
	
		<radialGradient id="SVGID_1_" cx="31.8" cy="21.85" r="12.2534" gradientTransform="matrix(1 0 0 -1 0 66)" gradientUnits="userSpaceOnUse">
		<stop  offset="0" style="stop-color:#FFFFFF"/>
		<stop  offset="1" style="stop-color:#C4C4C4"/>
	</radialGradient>
	<path class="st0" d="M44.1,31.9H19.5v24.5h24.6V31.9z"/>
	
		<radialGradient id="SVGID_2_" cx="31.8" cy="48.0775" r="11.6399" gradientTransform="matrix(1 0 0 -1 0 66)" gradientUnits="userSpaceOnUse">
		<stop  offset="0" style="stop-color:#FFFFFF"/>
		<stop  offset="1" style="stop-color:#FFE396"/>
	</radialGradient>
	<path class="st1" d="M31.8,29.6c6.4,0,11.6-5.2,11.6-11.6S38.2,6.4,31.8,6.4S20.2,11.6,20.2,18C20.2,24.3,25.4,29.6,31.8,29.6z"/>
</g>
<g id="jlPzEw.tif">
	<g>
		<path class="st2" d="M48.6,59.7c-0.3-0.3-0.6-0.7-0.8-1c-2.8-5-5.6-9.9-8.4-14.9c-0.6-1-1.1-2-2.2-2.5c-0.9-0.4-1.8-0.6-2.8-0.8
			c-1.7-0.3-3.1-1-3.9-2.6c-0.2-0.5-0.4-1.1-0.6-1.6c0,0,0-0.1,0-0.1c1.3,0.5,2.6,1,3.8,1.5c0.1,0,0.3,0.1,0.3,0
			c0.9-0.5,1.9-1.1,2.8-1.6c-0.3-1.1-0.6-2.1-0.9-3.1c-0.1-0.2-0.2-0.4-0.4-0.4c-0.8-0.3-1.6-0.6-2.4-1c-0.4-0.2-0.8-0.3-1.2-0.5
			c0.7-0.6,1.5-0.9,2.3-1c0.7-0.1,1.5,0,2.2,0c0.4,0.2,0.9,0.3,1.3,0.5c0.8,0.6,1.6,1.2,2.1,2.2c0.5,0.9,0.7,1.8,0.6,2.8
			c-0.1,1.9,0.3,3.5,1.2,5.2c3.1,5.4,6.2,10.9,9.3,16.4c0.2,0.4,0.3,0.9,0.4,1.4c-0.1,0.3-0.2,0.5-0.3,0.8c-0.5,0.5-1.2,0.8-1.9,0.8
			C49,59.9,48.8,59.8,48.6,59.7z"/>
	</g>
</g>
<g id="_x31_I5T3X.tif">
	<g>
		<path class="st3" d="M51.2,31.7c0,0.1,0,0.3-0.1,0.4c-1,2.7-2,5.5-3.1,8.2c0,0.1-0.1,0.2-0.2,0.3c-0.5,0.6-1,1.2-1.3,1.9
			c-0.3,0.6-0.4,1.2-0.2,1.9c0,0.1,0,0.2,0,0.3c0,0,0,0.1,0,0.1c-0.1,0.5-0.5,0.7-0.9,0.8c-0.1,0-0.2,0-0.2,0
			c-0.2,0-0.5-0.1-0.8-0.1c0,0.1-0.1,0.1-0.1,0.2c-1.8,4.7-3.6,9.4-5.5,14.1c-0.2,0.4-0.4,0.8-0.7,1.1c-0.1,0.1-0.2,0.2-0.3,0.3
			c0,0-0.1,0-0.1,0.1c-0.2,0-0.4-0.1-0.6-0.2c0,0,0-0.1-0.1-0.1c0,0,0-0.1,0-0.1c-0.1-0.6,0.1-1.2,0.4-1.8c1.8-4.6,3.6-9.2,5.5-13.8
			c0-0.1,0.1-0.1,0.1-0.2c-0.2-0.2-0.5-0.3-0.7-0.5c-0.2-0.2-0.4-0.5-0.5-0.7c0,0,0-0.1,0-0.1c0.2-0.3,0.2-0.6,0.5-0.8
			c1-0.8,1.4-1.9,1.4-3.2c0-0.4,0-0.8,0.2-1.2c1-2.6,2-5.2,3-7.8c0.1-0.2,0.3-0.4,0.5-0.6c0.2-0.1,0.3-0.1,0.5-0.2c0,0,0,0,0.1,0
			c0.7-0.2,1.4,0,2,0.4c0.4,0.2,0.7,0.6,1,0.9C51.1,31.4,51.2,31.5,51.2,31.7z"/>
	</g>
</g>
</svg>
