<?xml version="1.0" encoding="utf-8"?>
<!-- Generator: Adobe Illustrator 15.1.0, SVG Export Plug-In . SVG Version: 6.00 Build 0)  -->
<!DOCTYPE svg PUBLIC "-//W3C//DTD SVG 1.1//EN" "http://www.w3.org/Graphics/SVG/1.1/DTD/svg11.dtd">
<svg version="1.1" id="Layer_1" xmlns="http://www.w3.org/2000/svg" xmlns:xlink="http://www.w3.org/1999/xlink" x="0px" y="0px"
	 width="64px" height="64px" viewBox="0 0 64 64" enable-background="new 0 0 64 64" xml:space="preserve">
<rect x="18.24" y="11.862" fill="#FAA634" width="27.52" height="2"/>
<path fill="none" d="M17.24,14.862h29.52v-4H17.24V14.862z M18.24,11.862h27.52v2H18.24V11.862z"/>
<rect x="18.24" y="18.862" fill="#FAA634" width="27.52" height="2"/>
<path fill="none" d="M17.24,21.861h29.52v-4H17.24V21.861z M18.24,18.862h27.52v2H18.24V18.862z"/>
<rect x="18.24" y="25.861" fill="#FAA634" width="17.52" height="2"/>
<path fill="none" d="M17.24,28.861h19.52v-4H17.24V28.861z M18.24,25.861h17.52v2H18.24V25.861z"/>
<path fill="none" d="M39.834,46.5c0,0,5.885-7.5,10.166-8.5"/>
<path fill="#8DC63F" d="M51.962,46.287l-1.533-5.453c-3.161,1.327-11.506,5.303-15.228,11.604l-1.076,0.688l-1.188-0.75l0.035-1.057
	c0.272-0.651,6.51-15.307,15.333-18.143l-1.53-6.146l7.506,3.588V5.552h-9.864H9.719v52.847h44.562V43.237L51.962,46.287z
	 M17.24,10.862h29.52v4H17.24V10.862z M17.24,17.861h29.52v4H17.24V17.861z M17.24,24.861h19.52v4H17.24V24.861z"/>
<path fill="#FAA634" d="M34.125,51.802c0,0,6.753-16.104,15.694-17.721l-1.19-4.78l10.767,5.146l-6.909,9.086l-1.229-4.372
	C51.257,39.161,39.037,43.485,34.125,51.802z"/>
</svg>
