<?xml version="1.0" encoding="utf-8"?>
<!-- Generator: Adobe Illustrator 20.0.0, SVG Export Plug-In . SVG Version: 6.00 Build 0)  -->
<svg version="1.1" id="Layer_1" xmlns="http://www.w3.org/2000/svg" xmlns:xlink="http://www.w3.org/1999/xlink" x="0px" y="0px"
	 viewBox="0 0 64 64" style="enable-background:new 0 0 64 64;" xml:space="preserve">
<style type="text/css">
	.st0{fill:url(#SVGID_1_);stroke:#BABABA;stroke-miterlimit:10;}
	.st1{fill:url(#SVGID_2_);stroke:#FFDA73;stroke-miterlimit:10;}
	.st2{opacity:0.32;fill:#9ECF5C;}
	.st3{fill:#9ECF5C;stroke:#8DC63F;stroke-miterlimit:10;}
</style>
<radialGradient id="SVGID_1_" cx="31.8" cy="21.85" r="12.2534" gradientTransform="matrix(1 0 0 -1 0 66)" gradientUnits="userSpaceOnUse">
	<stop  offset="0" style="stop-color:#FFFFFF"/>
	<stop  offset="1" style="stop-color:#C4C4C4"/>
</radialGradient>
<path class="st0" d="M44.1,31.9H19.5v24.5h24.6V31.9z"/>
<radialGradient id="SVGID_2_" cx="31.8" cy="48.0775" r="11.6399" gradientTransform="matrix(1 0 0 -1 0 66)" gradientUnits="userSpaceOnUse">
	<stop  offset="0" style="stop-color:#FFFFFF"/>
	<stop  offset="1" style="stop-color:#FFE396"/>
</radialGradient>
<path class="st1" d="M31.8,29.6c6.4,0,11.6-5.2,11.6-11.6S38.2,6.4,31.8,6.4S20.2,11.6,20.2,18C20.2,24.3,25.4,29.6,31.8,29.6z"/>
<circle class="st2" cx="45.1" cy="37.4" r="8.7"/>
<path class="st3" d="M54.8,41.1c2-5.3-0.6-11.3-5.9-13.3s-11.3,0.6-13.3,5.9c-1.7,4.5,0,9.5,3.8,12.2c-0.1,0.1-0.1,0.2-0.2,0.3
	l-4.5,11.7c-0.5,1.3,0.2,2.7,1.4,3.2c1.3,0.5,2.7-0.2,3.2-1.4l4.5-11.7c0-0.1,0.1-0.2,0.1-0.4C48.4,48.2,53,45.6,54.8,41.1z
	 M42.4,44.6c-4-1.5-6-6-4.4-10c1.5-4,6-6,10-4.4s6,6,4.4,10C50.8,44.1,46.4,46.1,42.4,44.6z"/>
</svg>
